<?xml version="1.0" encoding="UTF-8" standalone="no"?>
<svg xmlns:dc="http://purl.org/dc/elements/1.1/" xmlns:cc="http://creativecommons.org/ns#" xmlns:rdf="http://www.w3.org/1999/02/22-rdf-syntax-ns#" xmlns:svg="http://www.w3.org/2000/svg" xmlns="http://www.w3.org/2000/svg" xml:space="preserve" enable-background="new 0 0 223.713 247.543" viewBox="0 0 155.10201 149.73474" height="149.73474" width="155.10201" y="0px" x="0px" version="1.1"><metadata><rdf:RDF><cc:Work rdf:about=""><dc:format>image/svg+xml</dc:format><dc:type rdf:resource="http://purl.org/dc/dcmitype/StillImage"/><dc:title/></cc:Work></rdf:RDF></metadata>
   <path id="path2" d="M 2.4414062e-7,100.94774 V 56.723736 H 33.863 v 10.298 H 12.13 v 5.875 h 13.078 v 10.172 H 12.13 v 7.581 h 22.176 v 10.298004 z"/><path id="path4" d="M 74.108,100.94774 56.67,75.992736 V 100.94774 H 45.298 V 56.723736 h 10.803 l 16.616,23.502 v -23.502 h 11.372 v 44.224004 z"/><path id="path6" d="m 113.152,101.64274 c -7.14,0 -14.025,-2.338004 -18.638,-5.370004 l 5.938,-9.603 c 3.223,2.211 8.846,4.422 12.952,4.422 4.358,0 5.749,-0.758 5.749,-2.843 0,-1.643 -1.58,-2.653 -7.519,-4.044 -10.677,-2.464 -15.794,-5.37 -15.794,-14.215 0,-8.339 6.76,-13.962 17.437,-13.962 7.519,0 12.951,1.832 17.627,5.117 l -5.938,9.603 c -3.918,-2.653 -7.835,-4.17 -12.32,-4.17 -3.664,0 -4.549,1.137 -4.549,2.717 0,1.643 1.58,2.401 7.266,3.728 11.119,2.653 16.047,6.065 16.047,14.341 0,10.109 -7.644,14.279004 -18.258,14.279004 z"/><path id="path8" d="M 142.593,100.94774 V 56.723736 h 12.509 v 44.224004 z"/><path id="path10" d="m 17.548,149.73474 c -11.4419998,0 -17.54799975585938,-8.472 -17.54799975585938,-19.858 0,-12.377 7.26099995585938,-19.857 17.60299975585938,-19.857 9.461,0 13.202,4.07 15.842,11.331 l -9.681,3.796 c -1.375,-3.576 -2.695,-5.831 -6.216,-5.831 -4.456,0 -6.381,4.456 -6.381,10.562 0,5.886 1.87,10.562 6.491,10.562 3.355,0 4.786,-1.815 6.876,-5.445 l 9.021,4.785 c -2.586,5.059 -6.876,9.955 -16.007,9.955 z"/><path id="path12" d="m 64.375,149.12974 -2.09,-6.767 H 50.733 l -2.091,6.767 H 37.201 l 13.972,-38.506 h 10.781 l 13.972,38.506 z m -5.391,-17.768 c -1.375,-4.951 -1.98,-7.041 -2.476,-9.626 -0.495,2.585 -1.1,4.73 -2.475,9.626 l -0.715,2.53 h 6.381 z"/><path id="path14" d="m 82.268,149.12974 v -38.506 h 29.484 v 8.967 H 92.829 v 5.115 h 11.387 v 8.856 H 92.829 v 6.601 h 19.308 v 8.967 z"/><path id="path16" d="m 146.411,149.12974 -9.187,-12.707 c -1.705,-2.365 -5.006,-7.316 -5.996,-9.021 0.275,1.705 0.33,6.821 0.33,9.957 v 11.771 h -10.231 v -38.506 h 9.406 l 8.471,11.387 c 1.761,2.365 5.171,7.481 5.997,9.076 -0.275,-1.705 -0.331,-6.82 -0.331,-9.956 v -10.507 h 10.231 v 38.506 z"/><rect style="fill:#ce5858" id="rect18" height="6.487" width="12.711" y="24.873737" x="126.32401"/><rect style="fill:#ce5858" id="rect20" height="6.487" width="12.711" y="24.873737" x="0"/><rect style="fill:#ce5858" id="rect22" height="6.487" width="12.711" y="33.331738" x="31.655998"/><rect style="fill:#ce5858" id="rect24" height="6.4770002" width="12.691" y="33.34174" x="110.507"/><rect style="fill:#c0aa3b" id="rect26" height="6.4770002" width="12.691" y="16.326736" x="47.442001"/><rect style="fill:#dc9448" id="rect28" height="6.4770002" width="13.243" y="41.848736" x="78.686996"/><rect style="fill:#ce5858" id="rect30" height="6.4770002" width="13.244" y="16.352737" x="62.885002"/><rect style="fill:#ce5858" id="rect32" height="6.487" width="12.711" y="7.8327365" x="94.742996"/><rect style="fill:#ce5858" id="rect34" height="6.487" width="13.263" y="41.914738" x="141.839"/><rect style="fill:#ce5858" id="rect36" height="6.487" width="12.711" y="33.393734" x="15.790001"/><rect style="fill:#dc9448" id="rect38" height="6.487" width="12.711" y="33.393734" x="94.742996"/><rect style="fill:#dc9448" id="rect40" height="6.487" width="12.711" y="7.8327365" x="126.32401"/><rect style="fill:#dc9448" id="rect42" height="6.487" width="13.263" y="33.393734" x="141.839"/><rect style="fill:#dc9448" id="rect44" height="6.487" width="12.711" y="41.914738" x="31.581001"/><rect style="fill:#4abbbf" id="rect46" height="6.487" width="13.264" y="24.873737" x="62.885002"/><rect style="fill:#dc9448" id="rect48" height="6.4770002" width="12.691" y="24.834736" x="15.909"/><rect style="fill:#dc9448" id="rect50" height="6.487" width="12.711" y="16.352737" x="110.533"/><rect style="fill:#dc9448" id="rect52" height="6.487" width="12.711" y="16.352737" x="31.581001"/><rect style="fill:#ce5858" id="rect54" height="6.487" width="12.711" y="41.914738" x="0"/><rect style="fill:#4abbbf" id="rect56" height="6.4770002" width="12.691" y="16.326736" x="126.274"/><rect style="fill:#c0aa3b" id="rect58" height="6.4770002" width="12.691" y="33.34174" x="126.274"/><rect style="fill:#4abbbf" id="rect60" height="6.4770002" width="12.691" y="24.873737" x="31.581001"/><rect style="fill:#ce5858" id="rect62" height="6.4770002" width="13.243" y="24.834736" x="78.697998"/><rect style="fill:#4abbbf" id="rect64" height="6.487" width="12.711" y="16.352737" x="94.742996"/><rect style="fill:#ce5858" id="rect66" height="6.487" width="13.263" y="16.352737" x="141.839"/><rect style="fill:#dc9448" id="rect68" height="6.487" width="12.711" y="33.393734" x="47.371002"/><rect style="fill:#c0aa3b" id="rect70" height="6.487" width="13.263" y="16.352737" x="78.676003"/><rect style="fill:#c0aa3b" id="rect72" height="6.487" width="12.711" y="24.873737" x="94.742996"/><rect style="fill:#c0aa3b" id="rect74" height="6.487" width="13.263" y="24.873737" x="141.839"/><rect style="fill:#ce5858" id="rect76" height="6.487" width="12.711" y="24.873737" x="47.371002"/><rect style="fill:#c0aa3b" id="rect78" height="6.4770002" width="12.691" y="41.848736" x="110.543"/><rect style="fill:#c0aa3b" id="rect80" height="6.4770002" width="12.691" y="33.34174" x="0.14300156"/><rect style="fill:#c0aa3b" id="rect82" height="6.487" width="12.711" y="7.8327365" x="110.533"/><rect style="fill:#c0aa3b" id="rect84" height="6.487" width="12.711" y="41.914738" x="47.371002"/><rect style="fill:#c0aa3b" id="rect86" height="6.487" width="13.264" y="33.331738" x="62.912003"/><rect style="fill:#4abbbf" id="rect88" height="6.487" width="12.711" y="41.914738" x="94.742996"/><rect style="fill:#4abbbf" id="rect90" height="6.487" width="12.711" y="24.873737" x="110.533"/><rect style="fill:#4abbbf" id="rect92" height="6.487" width="12.711" y="41.914738" x="126.32401"/><rect style="fill:#4abbbf" id="rect94" height="6.487" width="12.711" y="41.914738" x="15.790001"/><rect style="fill:#4abbbf" id="rect96" height="6.487" width="13.263" y="33.393734" x="78.676003"/><rect style="fill:#ce5858" id="rect98" height="6.487" width="13.264" y="41.914738" x="62.885002"/><g transform="translate(-34.306,-34.305264)" id="g116"><rect style="fill:#dc9448" id="rect100" height="6.4770002" width="13.243" y="42.125" x="113.004"/><path style="fill:#c0aa3b" id="path102" d="m 97.191,48.625 h 13.264 V 42.24 c -4.339,0.316 -8.769,0.704 -13.264,1.172 z"/><path style="fill:#c0aa3b" id="path104" d="M 50.096,57.145 H 62.807 V 50.658 H 53.29 c -1.065,0.25 -2.13,0.504 -3.194,0.766 z"/><path style="fill:#ce5858" id="path106" d="m 65.887,48.625 h 12.711 v -2.828 c -4.215,0.647 -8.457,1.373 -12.711,2.188 z"/><path style="fill:#4abbbf" id="path108" d="m 81.748,48.602 h 12.691 v -4.894 c -4.185,0.465 -8.421,1.002 -12.691,1.62 z"/><path style="fill:#4abbbf" id="path110" d="m 176.145,42.138 v 6.487 h 13.263 v -5.457 c -1.688,-0.187 -5.8,-0.609 -11.819,-1.03 z"/><path style="fill:#4abbbf" id="path112" d="m 34.306,57.145 h 12.711 v -4.947 c -4.259,1.096 -8.502,2.292 -12.711,3.598 z"/><path style="fill:#020203" id="path114" d="m 34.306,52.56 v 1.667 1.568 c 4.209,-1.306 8.452,-2.501 12.711,-3.598 1.025,-0.264 2.052,-0.521 3.08,-0.774 1.064,-0.262 2.128,-0.517 3.194,-0.766 4.198,-0.982 8.402,-1.87 12.597,-2.673 4.254,-0.815 8.496,-1.541 12.711,-2.188 1.052,-0.161 2.102,-0.317 3.15,-0.469 4.271,-0.617 8.507,-1.155 12.691,-1.62 0.92,-0.102 1.837,-0.201 2.752,-0.296 4.495,-0.468 8.924,-0.856 13.264,-1.172 28.437,-2.068 53.026,-1.089 67.133,-0.102 6.02,0.421 10.132,0.844 11.819,1.03 v -1.03 c 0,-2.391 0,-3.093 0,-6.083 C 182.05,35.26 101.998,27.505 34.306,52.56 Z"/></g></svg>